<svg xmlns="http://www.w3.org/2000/svg" width="120" height="120" fill="none" viewBox="0 0 120 120"> <clipPath id="a"> <path d="M24 29h72v63H24z"/> </clipPath> <path fill="#f4f6fa" d="M108.524 23.284c19.748 26.422 13.121 64.893-13.194 84.734-26.314 19.829-63.654 14.495-83.401-11.927C-7.82 69.67-2.508 32.177 23.807 12.348 50.12-7.481 88.764-3.14 108.524 23.283z"/> <g clip-path="url(#a)"> <path fill="#eef0f4" fill-rule="evenodd" d="M78.858 73c-7.837-.112-20.699-.238-22.575.097v3.697c0 .98.391 1.92 1.089 2.614S59.015 80.49 60 80.49h18.665l6.33 9.375c.682 1.011 2.268.53 2.268-.686v-8.69h3.718a3.73 3.73 0 0 0 2.629-1.083 3.687 3.687 0 0 0 1.089-2.614V55.846c0-.98-.392-1.92-1.09-2.614a3.729 3.729 0 0 0-2.628-1.083h-6.197l.101 14.896c.023 3.316-2.694 6.002-6.028 5.954z" clip-rule="evenodd"/> <path fill="#fff" d="M26.72 31.5c.46-.448 1.084-.7 1.735-.7h49.09c.65 0 1.275.252 1.735.7.46.447.72 1.055.72 1.688V67c0 .633-.26 1.24-.72 1.688s-1.084.7-1.735.7H50.782L38.588 84V69.388H28.455c-.65 0-1.275-.252-1.735-.7S26 67.633 26 67V33.188c0-.634.26-1.24.72-1.688z"/> <path fill="#313133" d="M86.016 91.707a2.536 2.536 0 0 1-2.101-1.12l-5.943-8.803H60c-1.33-.001-2.606-.528-3.547-1.463s-1.47-2.204-1.471-3.527v-3.697h2.602v3.697c0 .637.255 1.248.708 1.698a2.43 2.43 0 0 0 1.708.705h19.36l6.602 9.779v-9.78h5.019c.64 0 1.255-.253 1.708-.704.453-.45.708-1.061.708-1.698V55.847c0-.637-.255-1.248-.708-1.699a2.426 2.426 0 0 0-1.708-.704h-6.197v-2.588h6.197c1.33.002 2.606.528 3.547 1.464s1.47 2.204 1.471 3.527v20.947c-.001 1.323-.53 2.591-1.471 3.527s-2.217 1.462-3.547 1.463h-2.417v7.394c.002.542-.172 1.07-.497 1.506s-.782.756-1.304.912a2.567 2.567 0 0 1-.747.11zm-47.07-6.45c-.29 0-.585-.05-.873-.153a2.512 2.512 0 0 1-1.223-.92 2.49 2.49 0 0 1-.457-1.457V70.694h-7.374a5.04 5.04 0 0 1-3.547-1.463A4.982 4.982 0 0 1 24 65.704V34.283a4.982 4.982 0 0 1 1.472-3.527 5.04 5.04 0 0 1 3.547-1.464h48.33a5.04 5.04 0 0 1 3.547 1.464 4.982 4.982 0 0 1 1.472 3.527v31.42c-.001 1.324-.53 2.592-1.472 3.528s-2.216 1.462-3.547 1.463H52.226L40.891 84.336a2.51 2.51 0 0 1-1.945.92zM29.019 31.88c-.64 0-1.255.254-1.708.704a2.399 2.399 0 0 0-.709 1.699v31.42c0 .638.255 1.249.709 1.7.453.45 1.067.703 1.708.704h9.976v14.448L51 68.107h26.348c.641 0 1.255-.254 1.709-.705.453-.45.708-1.061.708-1.698V34.283c0-.637-.255-1.248-.708-1.699s-1.068-.704-1.709-.704z"/> <g fill="#37f826" stroke="#313133" stroke-width="2"> <circle cx="38.5" cy="51.5" r="4.5"/> <circle cx="52.5" cy="51.5" r="4.5"/> <circle cx="66.5" cy="51.5" r="4.5"/> </g> </g> </svg> 