<svg xmlns="http://www.w3.org/2000/svg" width="121" height="120" fill="none" viewBox="0 0 121 120"> <clipPath id="a"> <path d="M24.891 24.898h79.676v71.608H24.891z"/> </clipPath> <path fill="#f4f6fa" d="M109.52 23.19c19.749 26.314 13.121 64.63-13.194 84.391C70.01 127.329 32.67 122.018 12.92 95.702-6.827 69.387-1.516 32.046 24.8 12.298 51.115-7.451 89.76-3.126 109.52 23.189z"/> <g clip-path="url(#a)"> <path fill="#fff" d="M25.988 26h53v69h-53z"/> <path fill="#37f826" d="m63.934 78.205 2.703-11.139 7.655 5.837z"/> <path fill="#eef0f4" fill-rule="evenodd" d="m97.692 31.128 3.96 3.079a3.413 3.413 0 0 1 .598 4.796L75.433 72.99l-9.36-7.279 26.819-33.987a3.418 3.418 0 0 1 3.608-1.196c.433.12.838.323 1.192.599z" clip-rule="evenodd"/> <path fill="#313133" d="M78.613 95.315H26.124a1.234 1.234 0 0 1-1.233-1.232V27.321c0-.68.552-1.231 1.233-1.231h52.489c.681 0 1.233.55 1.233 1.231v15.98a1.23 1.23 0 0 1-1.233 1.232A1.234 1.234 0 0 1 77.38 43.3V28.552H27.357v64.302H77.38V74.493a1.23 1.23 0 0 1 1.233-1.232 1.234 1.234 0 0 1 1.233 1.232v19.592a1.23 1.23 0 0 1-1.233 1.23zM52.575 82.724H32.436a1.234 1.234 0 0 1-1.233-1.232 1.23 1.23 0 0 1 1.233-1.23h20.139a1.234 1.234 0 0 1 1.233 1.23 1.23 1.23 0 0 1-1.233 1.232zm10.14-1.968a1.237 1.237 0 0 1-1.203-.967 1.23 1.23 0 0 1 .004-.55l3.3-13.858a1.22 1.22 0 0 1 .212-.468v-.002l.026-.034 26.817-33.986a4.663 4.663 0 0 1 6.531-.807l3.96 3.079a4.617 4.617 0 0 1 1.759 3.093 4.622 4.622 0 0 1-.946 3.43l-2.617 3.313a1.21 1.21 0 0 1-.311.394L76.352 73.681l-.002.002v.002l-.002.002c-.112.14-.254.255-.416.334l-12.645 6.594a1.24 1.24 0 0 1-.572.141zM66.78 67.79l-2.237 9.395 8.571-4.471zm5.661 1.28 2.735 2.126L97.7 42.646l-2.713-2.11zm-4.679-3.639 2.733 2.125 22.544-28.532-2.755-2.142zM91.81 34.948l7.414 5.765 2.008-2.546a2.19 2.19 0 0 0 .173-2.417 2.176 2.176 0 0 0-.559-.645l-3.96-3.079a2.193 2.193 0 0 0-3.072.382l-.002.006zM56.684 72.054H32.436a1.234 1.234 0 0 1-1.233-1.231 1.23 1.23 0 0 1 1.233-1.231h24.248c.327 0 .64.13.872.36a1.226 1.226 0 0 1 0 1.741 1.234 1.234 0 0 1-.872.361zm6.575-10.67H32.436a1.234 1.234 0 0 1-1.233-1.23 1.23 1.23 0 0 1 1.233-1.232H63.26a1.227 1.227 0 0 1 1.233 1.231 1.23 1.23 0 0 1-1.233 1.232zm9.041-10.67H32.438a1.234 1.234 0 0 1-1.233-1.231 1.23 1.23 0 0 1 1.233-1.232H72.3a1.234 1.234 0 0 1 1.232 1.232 1.23 1.23 0 0 1-1.233 1.23zm0-10.67H32.438a1.234 1.234 0 0 1-1.233-1.23 1.23 1.23 0 0 1 1.233-1.232H72.3a1.234 1.234 0 0 1 1.233 1.231 1.231 1.231 0 0 1-1.234 1.231z"/> </g> </svg> 